name C:\Users\antoi\Documents\MyRepositories\upper-imu-dc\Results\main_tracking\Case_85\kinematics.mot
datacolumns 43
datarows 7
range 3.74000000 3.86000000
endheader 
time	clav_prot	clav_elev	scapula_abduction	scapula_elevation	scapula_upward_rot	scapula_winging	plane_elv	shoulder_elv	axial_rot	TrapeziusScapula_M/activation	TrapeziusScapula_S/activation	TrapeziusScapula_I/activation	TrapeziusClavicle_S/activation	SerratusAnterior_I/activation	SerratusAnterior_M/activation	SerratusAnterior_S/activation	Rhomboideus_S/activation	Rhomboideus_I/activation	LevatorScapulae/activation	Coracobrachialis/activation	DeltoideusClavicle_A/activation	DeltoideusScapula_P/activation	DeltoideusScapula_M/activation	LatissimusDorsi_S/activation	LatissimusDorsi_M/activation	LatissimusDorsi_I/activation	PectoralisMajorClavicle_S/activation	PectoralisMajorThorax_I/activation	PectoralisMajorThorax_M/activation	TeresMajor/activation	Infraspinatus_I/activation	Infraspinatus_S/activation	PectoralisMinor/activation	TeresMinor/activation	Subscapularis_S/activation	Subscapularis_M/activation	Subscapularis_I/activation	Supraspinatus_P/activation	Supraspinatus_A/activation	TRIlong/activation	BIC_long/activation	BIC_brevis/activation	
          3.74000000	        -23.22341482	         -7.01577450	        -10.62418887	         -7.14308521	         16.94244253	          5.50417064	        -20.45035542	         44.26543307	         11.09526354	          0.01000505	          0.05968741	          0.01000000	          0.02426969	          0.05056468	          0.06283413	          0.01000000	          0.01000000	          0.01000000	          0.01794511	          0.01109378	          0.05166398	          0.01000000	          0.07734681	          0.01000000	          0.01000000	          0.01000000	          0.02867350	          0.01000000	          0.01061379	          0.01000000	          0.01961745	          0.02230325	          0.01000000	          0.01000000	          0.01000000	          0.01000000	          0.01000000	          0.02011055	          0.03793915	          0.01000000	          0.06128389	          0.01329469	
          3.76000000	        -23.21726469	         -6.95008491	        -10.56007159	         -7.11888931	         17.05227496	          5.45019954	        -20.06612499	         45.25047351	         10.34427448	          0.01000240	          0.06078597	          0.01000000	          0.02469141	          0.05170590	          0.06407681	          0.01000000	          0.01000002	          0.01000000	          0.01795234	          0.01128819	          0.05292036	          0.01000000	          0.07971913	          0.01000000	          0.01000000	          0.01000000	          0.02852982	          0.01000000	          0.01000004	          0.01000000	          0.01981335	          0.02241335	          0.01000000	          0.01000000	          0.01000000	          0.01000000	          0.01000000	          0.02081268	          0.03919192	          0.01000000	          0.06236053	          0.01337362	
          3.78000000	        -23.21377217	         -6.88615334	        -10.49800904	         -7.09698147	         17.16545575	          5.39639191	        -19.69041072	         46.24117128	          9.60186116	          0.01000150	          0.06210154	          0.01000000	          0.02517452	          0.05309573	          0.06533930	          0.01000000	          0.01000002	          0.01000000	          0.01799775	          0.01138803	          0.05436618	          0.01000000	          0.08213522	          0.01000000	          0.01000000	          0.01000000	          0.02845870	          0.01000000	          0.01000002	          0.01000000	          0.02015854	          0.02252694	          0.01000000	          0.01000000	          0.01000000	          0.01000000	          0.01000000	          0.02152793	          0.04058468	          0.01000000	          0.06347067	          0.01341286	
          3.80000000	        -23.21023144	         -6.82319597	        -10.43127911	         -7.07745392	         17.28558295	          5.34148402	        -19.32547300	         47.24182555	          8.86016491	          0.01000219	          0.06331140	          0.01000000	          0.02561713	          0.05434398	          0.06678623	          0.01000000	          0.01000002	          0.01000000	          0.01802912	          0.01159061	          0.05580301	          0.01000000	          0.08445086	          0.01000000	          0.01000000	          0.01000000	          0.02826500	          0.01000000	          0.01000001	          0.01000000	          0.02037857	          0.02280543	          0.01000000	          0.01000000	          0.01000000	          0.01000000	          0.01000000	          0.02231826	          0.04193987	          0.01000000	          0.06453594	          0.01350165	
          3.82000000	        -23.20657366	         -6.75889050	        -10.35900451	         -7.05899589	         17.41465226	          5.28400345	        -18.97317863	         48.25649685	          8.11178479	          0.01000145	          0.06428214	          0.01000000	          0.02606855	          0.05545845	          0.06818043	          0.01000000	          0.01000002	          0.01000000	          0.01830097	          0.01160340	          0.05681779	          0.01000000	          0.08660811	          0.01000000	          0.01000000	          0.01000000	          0.02802764	          0.01000000	          0.01000001	          0.01000000	          0.02083218	          0.02283430	          0.01000000	          0.01000000	          0.01000000	          0.01000000	          0.01000000	          0.02289600	          0.04312175	          0.01000000	          0.06541608	          0.01343524	
          3.84000000	        -23.20262705	         -6.69063733	        -10.28098816	         -7.03976938	         17.55336778	          5.22265930	        -18.63494608	         49.28832463	          7.35324149	          0.01000115	          0.06506834	          0.01000000	          0.02649710	          0.05628169	          0.06955561	          0.01000000	          0.01000002	          0.01000000	          0.01861738	          0.01167492	          0.05755932	          0.01000000	          0.08853554	          0.01000000	          0.01000000	          0.01000000	          0.02766915	          0.01000000	          0.01000000	          0.01000000	          0.02110756	          0.02302762	          0.01000000	          0.01000000	          0.01000000	          0.01000000	          0.01000000	          0.02351983	          0.04421368	          0.01000000	          0.06583315	          0.01339886	
          3.86000000	        -23.19837287	         -6.61677765	        -10.19660212	         -7.01885228	         17.70322148	          5.15640535	        -18.31063992	         50.33736924	          6.58707139	          0.01000027	          0.06573626	          0.01000000	          0.02683459	          0.05687947	          0.07078897	          0.01000000	          0.01000003	          0.01000000	          0.01914173	          0.01145190	          0.05843053	          0.01000000	          0.09007798	          0.01000000	          0.01000000	          0.01000000	          0.02710256	          0.01000000	          0.01000000	          0.01000000	          0.02142270	          0.02297965	          0.01000000	          0.01000000	          0.01000000	          0.01000000	          0.01000000	          0.02391454	          0.04495979	          0.01000000	          0.06602422	          0.01311293	
